<svg version="1.1" id="Layer_1" xmlns="http://www.w3.org/2000/svg" xmlns:xlink="http://www.w3.org/1999/xlink" x="0px" y="0px"
	 width="100%" viewBox="0 0 1024 1024" enable-background="new 0 0 1024 1024" xml:space="preserve">
<path fill="#000000" opacity="1.000000" stroke="none" 
	d="
M577.000000,1025.000000 
	C384.666656,1025.000000 192.833328,1025.000000 1.000000,1025.000000 
	C1.000000,683.666687 1.000000,342.333344 1.000000,1.000000 
	C342.333344,1.000000 683.666687,1.000000 1025.000000,1.000000 
	C1025.000000,342.333344 1025.000000,683.666687 1025.000000,1025.000000 
	C875.833313,1025.000000 726.666687,1025.000000 577.000000,1025.000000 
M343.676086,893.852234 
	C469.171204,741.467224 594.666321,589.082214 720.374573,436.438385 
	C695.978149,425.983002 672.141296,415.767426 647.910950,405.383240 
	C695.247925,338.558624 742.512207,271.836548 789.923645,204.906708 
	C788.833435,204.189667 788.087219,203.544830 787.225708,203.154312 
	C738.123291,180.896698 689.008606,158.666290 639.903320,136.415085 
	C632.704834,133.153198 632.715271,133.106430 628.303711,139.517258 
	C599.168884,181.855698 570.090820,224.233383 540.891052,266.527008 
	C509.837494,311.505676 478.667145,356.403748 447.553894,401.341217 
	C439.938232,412.340668 432.346436,423.356598 424.387115,434.881226 
	C450.560059,447.471466 476.279327,459.843445 501.841339,472.139801 
	C486.546753,512.495178 471.429840,552.369751 456.321808,592.247742 
	C434.378876,650.166443 412.411224,708.075806 390.513336,766.011597 
	C374.459991,808.484253 358.501740,850.992920 342.139954,893.930908 
	C342.188477,894.201965 342.236969,894.473022 342.285461,894.744080 
	C342.527130,894.499878 342.768829,894.255615 343.676086,893.852234 
M460.026611,307.600952 
	C470.523865,292.570068 481.119080,277.606171 491.462555,262.470215 
	C494.851379,257.511292 493.504456,252.679138 488.130493,248.808792 
	C460.354340,228.804443 432.519318,208.881821 404.746552,188.872787 
	C383.753296,173.748077 362.804688,158.561203 341.874512,143.349289 
	C334.837677,138.234970 330.796600,138.900223 325.582092,146.424103 
	C297.937836,186.311081 270.302704,226.204391 242.687180,266.111237 
	C237.500381,273.606598 237.920731,276.425140 244.873123,282.369934 
	C245.375153,282.799194 245.930557,283.167175 246.469437,283.552002 
	C284.457550,310.680603 322.444214,337.811188 360.436829,364.933472 
	C370.830688,372.353485 381.149933,379.883331 391.678925,387.106934 
	C398.651459,391.890594 402.681946,390.941254 407.339142,384.176056 
	C412.175323,377.150757 417.014801,370.127655 421.875916,363.119598 
	C434.549042,344.849426 447.234863,326.588074 460.026611,307.600952 
z"/>
<path fill="#FEFEFE" opacity="1.000000" stroke="none" 
	d="
M342.501099,893.485535 
	C358.501740,850.992920 374.459991,808.484253 390.513336,766.011597 
	C412.411224,708.075806 434.378876,650.166443 456.321808,592.247742 
	C471.429840,552.369751 486.546753,512.495178 501.841339,472.139801 
	C476.279327,459.843445 450.560059,447.471466 424.387115,434.881226 
	C432.346436,423.356598 439.938232,412.340668 447.553894,401.341217 
	C478.667145,356.403748 509.837494,311.505676 540.891052,266.527008 
	C570.090820,224.233383 599.168884,181.855698 628.303711,139.517258 
	C632.715271,133.106430 632.704834,133.153198 639.903320,136.415085 
	C689.008606,158.666290 738.123291,180.896698 787.225708,203.154312 
	C788.087219,203.544830 788.833435,204.189667 789.923645,204.906708 
	C742.512207,271.836548 695.247925,338.558624 647.910950,405.383240 
	C672.141296,415.767426 695.978149,425.983002 720.374573,436.438385 
	C594.666321,589.082214 469.171204,741.467224 343.219177,893.797241 
	C342.762268,893.742188 342.501099,893.485535 342.501099,893.485535 
z"/>
<path fill="#FDFDFD" opacity="1.000000" stroke="none" 
	d="
M459.971130,307.962097 
	C447.234863,326.588074 434.549042,344.849426 421.875916,363.119598 
	C417.014801,370.127655 412.175323,377.150757 407.339142,384.176056 
	C402.681946,390.941254 398.651459,391.890594 391.678925,387.106934 
	C381.149933,379.883331 370.830688,372.353485 360.436829,364.933472 
	C322.444214,337.811188 284.457550,310.680603 246.469437,283.552002 
	C245.930557,283.167175 245.375153,282.799194 244.873123,282.369934 
	C237.920731,276.425140 237.500381,273.606598 242.687180,266.111237 
	C270.302704,226.204391 297.937836,186.311081 325.582092,146.424103 
	C330.796600,138.900223 334.837677,138.234970 341.874512,143.349289 
	C362.804688,158.561203 383.753296,173.748077 404.746552,188.872787 
	C432.519318,208.881821 460.354340,228.804443 488.130493,248.808792 
	C493.504456,252.679138 494.851379,257.511292 491.462555,262.470215 
	C481.119080,277.606171 470.523865,292.570068 459.971130,307.962097 
M417.472473,337.897766 
	C417.881653,337.196503 418.246246,336.464417 418.706512,335.798462 
	C435.162537,311.988953 451.595276,288.163239 468.125000,264.404968 
	C470.693909,260.712708 470.478577,258.274323 466.591431,255.491776 
	C425.440948,226.035141 384.394257,196.433533 343.322937,166.866348 
	C337.540741,162.703766 336.070099,163.024597 331.975067,168.979874 
	C318.993622,187.858475 305.946869,206.692139 292.947998,225.558777 
	C283.582977,239.151291 274.323059,252.816956 264.864716,266.344055 
	C262.219116,270.127777 262.548370,272.420441 266.500061,275.232483 
	C307.850098,304.657379 349.070892,334.263977 390.327759,363.819794 
	C395.088165,367.230164 396.948578,366.976929 400.331238,362.211029 
	C405.929749,354.323120 411.453796,346.382355 417.472473,337.897766 
z"/>
<path fill="#FEFEFE" opacity="1.000000" stroke="none" 
	d="
M342.886383,893.876831 
	C342.768829,894.255615 342.527130,894.499878 342.285461,894.744080 
	C342.236969,894.473022 342.188477,894.201965 342.320526,893.708252 
	C342.501099,893.485535 342.762268,893.742188 342.886383,893.876831 
z"/>
<path fill="#000000" opacity="1.000000" stroke="none" 
	d="
M417.240845,338.180786 
	C411.453796,346.382355 405.929749,354.323120 400.331238,362.211029 
	C396.948578,366.976929 395.088165,367.230164 390.327759,363.819794 
	C349.070892,334.263977 307.850098,304.657379 266.500061,275.232483 
	C262.548370,272.420441 262.219116,270.127777 264.864716,266.344055 
	C274.323059,252.816956 283.582977,239.151291 292.947998,225.558777 
	C305.946869,206.692139 318.993622,187.858475 331.975067,168.979874 
	C336.070099,163.024597 337.540741,162.703766 343.322937,166.866348 
	C384.394257,196.433533 425.440948,226.035141 466.591431,255.491776 
	C470.478577,258.274323 470.693909,260.712708 468.125000,264.404968 
	C451.595276,288.163239 435.162537,311.988953 418.706512,335.798462 
	C418.246246,336.464417 417.881653,337.196503 417.240845,338.180786 
z"/>
</svg>